<?xml version="1.0" encoding="utf-8"?>
<!-- Generator: Adobe Illustrator 17.1.0, SVG Export Plug-In . SVG Version: 6.00 Build 0)  -->
<!DOCTYPE svg PUBLIC "-//W3C//DTD SVG 1.1//EN" "http://www.w3.org/Graphics/SVG/1.1/DTD/svg11.dtd">
<svg version="1.1" id="Layer_1" xmlns="http://www.w3.org/2000/svg" xmlns:xlink="http://www.w3.org/1999/xlink" x="0px" y="0px"
	 viewBox="0 0 50 50" enable-background="new 0 0 50 50" xml:space="preserve">
<g>
	<circle fill="#FFFFFF" cx="25" cy="25" r="3.7"/>
	<path fill="#FFFFFF" d="M39.8,24.5c-0.3-0.3-6.7-7-14.8-7c-8.1,0-14.5,6.7-14.8,7c-0.2,0.3-0.2,0.7,0,0.9c0.3,0.3,6.7,7,14.8,7
		c8.1,0,14.5-6.8,14.8-7C40.1,25.2,40.1,24.8,39.8,24.5z M25,30.7c-3.1,0-5.7-2.6-5.7-5.7c0-3.1,2.6-5.7,5.7-5.7s5.7,2.6,5.7,5.7
		C30.7,28.1,28.1,30.7,25,30.7z M20.5,19.6c-1.5,1.3-2.5,3.2-2.5,5.4c0,2.2,1,4.1,2.5,5.4c-4.3-1.4-7.6-4.3-8.8-5.4
		C12.9,23.9,16.2,21,20.5,19.6z M29.5,30.4c1.5-1.3,2.5-3.2,2.5-5.4s-1-4.1-2.5-5.4c4.3,1.4,7.6,4.3,8.8,5.4
		C37.1,26.1,33.8,29,29.5,30.4z"/>
</g>
</svg>
